<?xml version="1.0" encoding="iso-8859-1"?>
<!-- Generator: Adobe Illustrator 18.1.1, SVG Export Plug-In . SVG Version: 6.00 Build 0)  -->
<svg version="1.1" id="Capa_1" xmlns="http://www.w3.org/2000/svg" xmlns:xlink="http://www.w3.org/1999/xlink" x="0px" y="0px"
	 viewBox="0 0 266.509 266.509" style="enable-background:new 0 0 266.509 266.509;" xml:space="preserve">
<g>
	<g>
		<path style="fill:#010002;" d="M126.779,28.427H55.348c-15.909,0-21.267,6.652-23.045,10.612
			c-1.615,3.584-3.019,11.068,5.695,20.864c12.08,13.598,34.299,24.253,50.572,24.253h21.142v43.942H91.898
			c-9.426,0-13.032,4.824-14.337,7.702c-3.133,6.886,0,16.236,8.817,26.347l24.432,28.006c6.886,7.887,16.094,12.232,25.944,12.232
			c9.845,0,19.058-4.346,25.939-12.232l24.432-28.006c8.964-10.285,12.189-19.727,9.067-26.592
			c-1.262-2.785-4.737-7.457-13.755-7.457h-16.986v-61.01C165.44,45.767,148.1,28.427,126.779,28.427z M182.426,138.976
			c2.012,0,3.557,0.435,3.856,1.082c0.751,1.648-0.582,7.158-7.365,14.936L154.486,183c-4.781,5.488-11.079,8.501-17.737,8.501
			c-6.657,0-12.956-3.019-17.742-8.501l-24.432-28.006c-6.657-7.626-7.903-12.967-7.12-14.696c0.364-0.8,2.11-1.322,4.433-1.322
			h23.252c3.008,0,5.439-2.431,5.439-5.439v-54.82c0-3.008-2.431-5.439-5.439-5.439H88.559c-13.086,0-32.52-9.431-42.446-20.598
			c-3.285-3.704-4.781-7.218-3.9-9.181c0.865-1.931,4.824-4.194,13.124-4.194h71.431c15.316,0,27.783,12.466,27.783,27.783v66.449
			c0,3.008,2.431,5.439,5.439,5.439H182.426z"/>
		<path style="fill:#010002;" d="M261.075,180.03H191.89c-1.556,0-3.04,0.664-4.068,1.833l-33.798,38.122
			c-3.845,4.335-9.116,6.891-14.843,7.185c-5.776,0.337-11.248-1.686-15.523-5.597l-43.844-40.113
			c-1.001-0.919-2.306-1.43-3.666-1.43H5.439c-3.008,0-5.439,2.431-5.439,5.439s2.431,5.439,5.439,5.439h68.592l42.283,38.688
			c6.016,5.504,13.674,8.485,21.718,8.485c0.566,0,1.142-0.016,1.713-0.049c8.664-0.451,16.622-4.302,22.409-10.835l32.178-36.289
			h66.737c3.008,0,5.439-2.431,5.439-5.439S264.083,180.03,261.075,180.03z"/>
	</g>
</g>
<g>
</g>
<g>
</g>
<g>
</g>
<g>
</g>
<g>
</g>
<g>
</g>
<g>
</g>
<g>
</g>
<g>
</g>
<g>
</g>
<g>
</g>
<g>
</g>
<g>
</g>
<g>
</g>
<g>
</g>
</svg>
